<!-- icon666.com - MILLIONS OF FREE VECTOR ICONS --><svg viewBox="0 0 512 512" xmlns="http://www.w3.org/2000/svg"><path d="m451 271v135h-30v-105h-150v105h-30v-105h-150v105h-30v-135h180v-75h30v75zm0 0" fill="#47568c" style="fill: rgb(165, 165, 167);"></path><path d="m451 271v135h-30v-105h-150v105h-15v-210h15v75zm0 0" fill="#2c3b73" style="fill: rgb(129, 131, 136);"></path><path d="m151 512h-151v-121h151zm0 0" fill="#979fef" style="fill: rgb(149, 238, 176);"></path><path d="m181 391v121h150v-121zm0 0" fill="#979fef" style="fill: rgb(149, 238, 176);"></path><path d="m512 512h-151v-121h151zm0 0" fill="#737ee6" style="fill: rgb(116, 231, 118);"></path><path d="m256 391h75v121h-75zm0 0" fill="#737ee6" style="fill: rgb(116, 231, 118);"></path><path d="m256 0c-57.898438 0-105 48.101562-105 106s47.101562 105 105 105 105-47.101562 105-105-47.101562-106-105-106zm0 0" fill="#ff641a" style="fill: rgb(249, 213, 31);"></path><path d="m256 211v-211c57.898438 0 105 48.101562 105 106s-47.101562 105-105 105zm0 0" fill="#f03800" style="fill: rgb(242, 194, 24);"></path></svg>