<!-- icon666.com - MILLIONS OF FREE VECTOR ICONS --><svg id="svg8" viewBox="0 0 32 32" xmlns="http://www.w3.org/2000/svg" xmlns:svg="http://www.w3.org/2000/svg"><g id="g1624" transform="translate(0 40.028)"><path id="path2504" d="m16-38.005346c-.7417 0-1.48286.199053-2.13867.599609-3.55479 2.33679-7.11277 4.680943-10.66797 7.021486l11.67969 10.634767c.55732.52846 1.63943.51557 2.252 0 3.89454-3.542505 7.78826-7.089666 11.68169-10.634767-3.55606-2.339067-7.11243-4.686068-10.66797-7.021486-.65591-.400554-1.39707-.599609-2.13877-.599609zm-14 9.240234v15.714848c0 1.6447 1.35529 3 3 3h22c1.6447 0 3-1.3553 3-3v-15.714848c-3.84974 3.504827-7.69901 7.012251-11.54881 10.515858-1.40067 1.23461-3.50166 1.23461-4.90234 0-3.84944-3.504036-7.69949-7.010585-11.54885-10.515858z" font-variant-ligatures="normal" font-variant-position="normal" font-variant-caps="normal" font-variant-numeric="normal" font-variant-alternates="normal" font-variant-east-asian="normal" font-feature-settings="normal" font-variation-settings="normal" text-indent="0" text-align="start" text-decoration-line="none" text-decoration-style="solid" text-decoration-color="rgb(0,0,0)" text-transform="none" text-orientation="mixed" white-space="normal" shape-padding="0" shape-margin="0" inline-size="0" isolation="auto" mix-blend-mode="normal" solid-color="rgb(0,0,0)" solid-opacity="1" vector-effect="none" fill="#000000" style="fill: rgb(201, 201, 201);"></path></g></svg>